PathFileType	4	(X/Y/Z)	./resultDataOpenSim/trcMotMarkerGrf/sub09/qtm-03-06.trc
DataRate	CameraRate	NumFrames	NumMarkers	Units	OrigDataRate	OrigDataStartFrame	OrigNumFrames
250.000000	250.000000	6	24	m	250.000000	1	492
Frame#	Time	L.Toe.Tip			R.Toe.Tip			L.Ankle.Lat			R.Ankle.Lat			L.Ankle.Med			R.Ankle.Med			L.Heel			R.Heel			L.Knee.Lat			R.Knee.Lat			L.Knee.Med			R.Knee.Med			L.Thigh.Upper			R.Thigh.Upper			L.ASIS			R.ASIS			V.Sacral			L.Acromium			R.Acromium			C7			L.Elbow			R.Elbow			L.Wrist.Lat			R.Wrist.Lat
		X1	Y1	Z1	X2	Y2	Z2	X3	Y3	Z3	X4	Y4	Z4	X5	Y5	Z5	X6	Y6	Z6	X7	Y7	Z7	X8	Y8	Z8	X9	Y9	Z9	X10	Y10	Z10	X11	Y11	Z11	X12	Y12	Z12	X13	Y13	Z13	X14	Y14	Z14	X15	Y15	Z15	X16	Y16	Z16	X17	Y17	Z17	X18	Y18	Z18	X19	Y19	Z19	X20	Y20	Z20	X21	Y21	Z21	X22	Y22	Z22	X23	Y23	Z23	X24	Y24	Z24

1	0	-1.5450784	0.036457216	0.0062084113	-1.0104044	0.083862532	0.15283092	-1.6872376	0.078231122	-0.036356505	-1.1620538	0.073195489	0.169705	-1.6669959	0.096396356	0.058476902	-1.1482103	0.11289818	0.080329799	NaN	NaN	NaN	-1.2130792	0.037535662	0.10985478	-1.540147	0.47039417	-0.086238193	-1.2120716	0.52908355	0.21712625	-1.5498691	0.47297674	0.037524965	-1.2018694	0.51218738	0.091757928	-1.4225798	0.87554419	-0.12387138	-1.4193093	0.8788645	0.24667485	-1.3218109	0.9502413	-0.063953821	-1.3341612	0.95955768	0.17653958	-1.4874126	1.0165528	0.05087188	-1.2905723	1.4188156	-0.081424645	-1.3593985	1.4137063	0.24148138	-1.3953897	1.4631075	0.064833082	-1.3904248	1.0584611	-0.17552339	NaN	NaN	NaN	-1.1522324	0.93100006	-0.1273956	-1.4135597	0.83836022	0.32686985
2	0.004	-1.5450093	0.036406584	0.0061590996	-0.99269662	0.087353302	0.15275681	-1.6870192	0.078985277	-0.036177046	-1.1445075	0.072861535	0.1705598	-1.6665055	0.097074804	0.058581211	-1.1316418	0.11312437	0.081232786	NaN	NaN	NaN	-1.1946263	0.03610622	0.11093093	-1.5376145	0.47039526	-0.086245216	-1.2063812	0.52771812	0.2176101	-1.5471633	0.47300422	0.03761842	-1.1957068	0.51069575	0.092239057	-1.4170478	0.87438828	-0.12350123	-1.4134187	0.87747883	0.24715631	-1.3160261	0.94881676	-0.063676107	-1.3283558	0.95819351	0.1767746	-1.4814019	1.0150887	0.051418439	-1.2845196	1.4175979	-0.080733489	-1.3541306	1.4122578	0.24210579	-1.3892411	1.4626953	0.071150105	-1.3833344	1.0569364	-0.1750891	NaN	NaN	NaN	-1.1442626	0.93140848	-0.1261136	-1.4084945	0.83691082	0.32767708
3	0.008	-1.5449362	0.036355602	0.0061065051	-0.9752181	0.091049679	0.15285525	-1.6867706	0.07978471	-0.036047694	-1.1272366	0.072646556	0.17143182	-1.6660267	0.097726965	0.058651198	-1.1153117	0.11345024	0.082171092	NaN	NaN	NaN	-1.1764258	0.034795824	0.11210258	-1.5349661	0.47039051	-0.086237388	-1.2006471	0.52629937	0.21809835	-1.5443403	0.47301698	0.037698758	-1.1895688	0.50915824	0.092668479	-1.41149	0.87322172	-0.12330679	-1.4075727	0.87607943	0.24762687	-1.3102062	0.94741568	-0.063370572	-1.3224632	0.95685806	0.17704746	-1.4755905	1.0136695	0.052310256	-1.2784676	1.4163902	-0.080050191	-1.3488079	1.4107832	0.24268781	-1.383176	1.4619759	0.075614083	-1.376253	1.0554131	-0.17469793	NaN	NaN	NaN	-1.1363146	0.93179621	-0.12484914	-1.4034126	0.83545179	0.32850038
4	0.012	-1.5448569	0.036305739	0.0060524866	-0.95823528	0.094994849	0.15314277	-1.6864915	0.080645848	-0.035984387	-1.1103827	0.072624073	0.1723538	-1.6655408	0.098367116	0.058666383	-1.0993834	0.1139116	0.083166828	NaN	NaN	NaN	-1.1586208	0.033672829	0.11343209	-1.5321209	0.47037127	-0.08620961	-1.1948353	0.52477041	0.21856481	-1.5413624	0.47299686	0.037780311	-1.1834562	0.50755458	0.09300761	-1.4058909	0.87204572	-0.12324175	-1.4017447	0.87465123	0.24809729	-1.3043309	0.94605648	-0.063022246	-1.3164661	0.95555974	0.17736207	-1.4703529	1.0123141	0.053488363	-1.2723914	1.415198	-0.079367604	-1.3434129	1.4092815	0.24323657	-1.3771752	1.4608903	0.078029131	-1.3691679	1.053893	-0.17432657	NaN	NaN	NaN	-1.1283961	0.93214066	-0.12360536	-1.3983084	0.83397994	0.32933757
5	0.016	-1.5447694	0.036258415	0.0059961126	-0.94195819	0.099074633	0.15356024	-1.6862082	0.081551048	-0.035975683	-1.0939775	0.072822396	0.17337068	-1.6650284	0.099037496	0.058626265	-1.0839589	0.11447801	0.084224006	NaN	NaN	NaN	-1.141279	0.032767836	0.11493323	-1.5290512	0.47032532	-0.086157622	-1.1889333	0.52313375	0.21898973	-1.5382238	0.47294287	0.037886535	-1.1773764	0.50589756	0.093248162	-1.4002626	0.87087144	-0.12310225	-1.3958854	0.87319501	0.24857867	-1.2984185	0.94473817	-0.062639882	-1.3104061	0.95428531	0.17770315	-1.4658861	1.0110011	0.054652207	-1.2662856	1.4140178	-0.078672306	-1.3379641	1.407771	0.24378626	-1.371208	1.4595724	0.079234277	-1.3620714	1.0523747	-0.17391495	NaN	NaN	NaN	-1.1205199	0.9324208	-0.12237728	-1.393179	0.83249903	0.33017708
6	0.02	-1.5446717	0.036212187	0.0059315752	-0.92641463	0.10316358	0.15406931	-1.6859207	0.082482343	-0.036012717	-1.078008	0.073239692	0.17451277	-1.6645056	0.099763511	0.058550287	-1.0690619	0.11510409	0.085337085	NaN	NaN	NaN	-1.1243961	0.032105989	0.11657117	-1.5257679	0.47023638	-0.086079394	-1.1829636	0.52144716	0.21939611	-1.5348832	0.47287223	0.038024669	-1.1713476	0.50421277	0.093417669	-1.3946206	0.8697016	-0.12276236	-1.3899442	0.87172376	0.24907103	-1.2925037	0.94343896	-0.062244082	-1.3043254	0.95301433	0.17806749	-1.4617255	1.009673	0.055667385	-1.260165	1.4128365	-0.077959298	-1.3324782	1.4062656	0.24435665	-1.365278	1.4581707	0.079921131	-1.3549646	1.0508578	-0.17343324	NaN	NaN	NaN	-1.1126927	0.93262843	-0.12116042	-1.3880098	0.83101215	0.33101743
